<mxfile host="65bd71144e">
    <diagram id="oRjekxII3CGcagpJhWY5" name="第 1 页">
        <mxGraphModel dx="678" dy="587" grid="1" gridSize="10" guides="1" tooltips="1" connect="1" arrows="1" fold="1" page="1" pageScale="1" pageWidth="827" pageHeight="1169" math="0" shadow="0">
            <root>
                <mxCell id="0"/>
                <mxCell id="1" parent="0"/>
                <mxCell id="2" value="用户子系统" style="swimlane;whiteSpace=wrap;html=1;" parent="1" vertex="1">
                    <mxGeometry x="160" y="50" width="430" height="260" as="geometry"/>
                </mxCell>
                <mxCell id="3" value="登录" style="ellipse;whiteSpace=wrap;html=1;" parent="2" vertex="1">
                    <mxGeometry x="80" y="70" width="100" height="50" as="geometry"/>
                </mxCell>
                <mxCell id="4" value="注册" style="ellipse;whiteSpace=wrap;html=1;" parent="2" vertex="1">
                    <mxGeometry x="80" y="160" width="100" height="50" as="geometry"/>
                </mxCell>
                <mxCell id="5" value="修改个人信息" style="ellipse;whiteSpace=wrap;html=1;" parent="2" vertex="1">
                    <mxGeometry x="240" y="100" width="120" height="60" as="geometry"/>
                </mxCell>
                <mxCell id="6" value="&amp;lt;&amp;lt;extend&amp;gt;&amp;gt;" style="html=1;verticalAlign=bottom;labelBackgroundColor=none;endArrow=open;endFill=0;dashed=1;" parent="2" source="5" target="3" edge="1">
                    <mxGeometry width="160" relative="1" as="geometry">
                        <mxPoint x="80" y="140" as="sourcePoint"/>
                        <mxPoint x="240" y="140" as="targetPoint"/>
                    </mxGeometry>
                </mxCell>
                <mxCell id="7" value="聊天子系统" style="swimlane;whiteSpace=wrap;html=1;" parent="1" vertex="1">
                    <mxGeometry x="160" y="350" width="430" height="280" as="geometry"/>
                </mxCell>
                <mxCell id="8" value="群聊管理" style="ellipse;whiteSpace=wrap;html=1;" parent="7" vertex="1">
                    <mxGeometry x="90" y="50" width="100" height="50" as="geometry"/>
                </mxCell>
                <mxCell id="11" value="聊天" style="ellipse;whiteSpace=wrap;html=1;" parent="7" vertex="1">
                    <mxGeometry x="90" y="170" width="100" height="50" as="geometry"/>
                </mxCell>
                <mxCell id="64" value="群组聊天" style="ellipse;whiteSpace=wrap;html=1;" vertex="1" parent="7">
                    <mxGeometry x="230" y="115" width="100" height="50" as="geometry"/>
                </mxCell>
                <mxCell id="65" value="私聊" style="ellipse;whiteSpace=wrap;html=1;" vertex="1" parent="7">
                    <mxGeometry x="230" y="210" width="100" height="50" as="geometry"/>
                </mxCell>
                <mxCell id="66" value="&amp;lt;&amp;lt;include&amp;gt;&amp;gt;" style="html=1;verticalAlign=bottom;labelBackgroundColor=none;endArrow=open;endFill=0;dashed=1;entryX=0.055;entryY=0.701;entryDx=0;entryDy=0;entryPerimeter=0;exitX=1;exitY=0;exitDx=0;exitDy=0;" edge="1" parent="7" source="11" target="64">
                    <mxGeometry width="160" relative="1" as="geometry">
                        <mxPoint x="240" y="90" as="sourcePoint"/>
                        <mxPoint x="400" y="90" as="targetPoint"/>
                    </mxGeometry>
                </mxCell>
                <mxCell id="67" value="&amp;lt;&amp;lt;include&amp;gt;&amp;gt;" style="html=1;verticalAlign=bottom;labelBackgroundColor=none;endArrow=open;endFill=0;dashed=1;entryX=0;entryY=0.5;entryDx=0;entryDy=0;exitX=1;exitY=1;exitDx=0;exitDy=0;" edge="1" parent="7" source="11" target="65">
                    <mxGeometry width="160" relative="1" as="geometry">
                        <mxPoint x="185.35533905932743" y="187.32233047033628" as="sourcePoint"/>
                        <mxPoint x="245.5" y="160.04999999999995" as="targetPoint"/>
                    </mxGeometry>
                </mxCell>
                <mxCell id="20" style="edgeStyle=none;html=1;exitX=0.5;exitY=0.5;exitDx=0;exitDy=0;exitPerimeter=0;" parent="1" source="12" target="11" edge="1">
                    <mxGeometry relative="1" as="geometry"/>
                </mxCell>
                <mxCell id="12" value="项目成员" style="shape=umlActor;verticalLabelPosition=bottom;verticalAlign=top;html=1;" parent="1" vertex="1">
                    <mxGeometry x="30" y="555" width="30" height="60" as="geometry"/>
                </mxCell>
                <mxCell id="16" style="edgeStyle=none;html=1;exitX=0.5;exitY=0.5;exitDx=0;exitDy=0;exitPerimeter=0;" parent="1" source="14" target="8" edge="1">
                    <mxGeometry relative="1" as="geometry"/>
                </mxCell>
                <mxCell id="21" style="edgeStyle=none;html=1;exitX=0.5;exitY=0.5;exitDx=0;exitDy=0;exitPerimeter=0;entryX=0.5;entryY=0;entryDx=0;entryDy=0;entryPerimeter=0;endArrow=block;endFill=0;strokeWidth=1;endSize=15;" parent="1" source="14" target="12" edge="1">
                    <mxGeometry relative="1" as="geometry"/>
                </mxCell>
                <mxCell id="14" value="群聊管理员" style="shape=umlActor;verticalLabelPosition=bottom;verticalAlign=top;html=1;" parent="1" vertex="1">
                    <mxGeometry x="40" y="420" width="30" height="60" as="geometry"/>
                </mxCell>
                <mxCell id="22" value="项目管理子系统" style="swimlane;whiteSpace=wrap;html=1;" parent="1" vertex="1">
                    <mxGeometry x="160" y="670" width="430" height="420" as="geometry"/>
                </mxCell>
                <mxCell id="23" value="创建项目" style="ellipse;whiteSpace=wrap;html=1;" parent="22" vertex="1">
                    <mxGeometry x="50" y="40" width="100" height="50" as="geometry"/>
                </mxCell>
                <mxCell id="24" value="发布任务" style="ellipse;whiteSpace=wrap;html=1;" parent="22" vertex="1">
                    <mxGeometry x="50" y="190" width="100" height="50" as="geometry"/>
                </mxCell>
                <mxCell id="25" value="任务提交" style="ellipse;whiteSpace=wrap;html=1;" parent="22" vertex="1">
                    <mxGeometry x="300" y="210" width="100" height="50" as="geometry"/>
                </mxCell>
                <mxCell id="26" value="成员管理" style="ellipse;whiteSpace=wrap;html=1;" parent="22" vertex="1">
                    <mxGeometry x="50" y="120" width="100" height="50" as="geometry"/>
                </mxCell>
                <mxCell id="27" value="权限管理" style="ellipse;whiteSpace=wrap;html=1;" parent="22" vertex="1">
                    <mxGeometry x="200" y="90" width="100" height="50" as="geometry"/>
                </mxCell>
                <mxCell id="28" value="&amp;lt;&amp;lt;extend&amp;gt;&amp;gt;" style="html=1;verticalAlign=bottom;labelBackgroundColor=none;endArrow=open;endFill=0;dashed=1;strokeWidth=1;endSize=6;" parent="22" source="27" target="26" edge="1">
                    <mxGeometry width="160" relative="1" as="geometry">
                        <mxPoint x="140" y="70" as="sourcePoint"/>
                        <mxPoint x="300" y="70" as="targetPoint"/>
                    </mxGeometry>
                </mxCell>
                <mxCell id="29" value="会议管理" style="ellipse;whiteSpace=wrap;html=1;" parent="22" vertex="1">
                    <mxGeometry x="50" y="330" width="100" height="50" as="geometry"/>
                </mxCell>
                <mxCell id="30" value="文件管理" style="ellipse;whiteSpace=wrap;html=1;" parent="22" vertex="1">
                    <mxGeometry x="50" y="260" width="100" height="50" as="geometry"/>
                </mxCell>
                <mxCell id="59" value="上传文件" style="ellipse;whiteSpace=wrap;html=1;" parent="22" vertex="1">
                    <mxGeometry x="300" y="300" width="100" height="50" as="geometry"/>
                </mxCell>
                <mxCell id="61" value="审批任务" style="ellipse;whiteSpace=wrap;html=1;" parent="22" vertex="1">
                    <mxGeometry x="170" y="230" width="100" height="50" as="geometry"/>
                </mxCell>
                <mxCell id="62" value="&amp;lt;&amp;lt;extend&amp;gt;&amp;gt;" style="html=1;verticalAlign=bottom;labelBackgroundColor=none;endArrow=open;endFill=0;dashed=1;strokeWidth=1;endSize=6;" parent="22" source="61" target="24" edge="1">
                    <mxGeometry width="160" relative="1" as="geometry">
                        <mxPoint x="243.13260543590627" y="133.7098697862475" as="sourcePoint"/>
                        <mxPoint x="176.81645887845207" y="146.2219139602903" as="targetPoint"/>
                    </mxGeometry>
                </mxCell>
                <mxCell id="32" value="报表子系统" style="swimlane;whiteSpace=wrap;html=1;" parent="1" vertex="1">
                    <mxGeometry x="160" y="1130" width="430" height="260" as="geometry"/>
                </mxCell>
                <mxCell id="33" value="查看项目数据" style="ellipse;whiteSpace=wrap;html=1;" parent="32" vertex="1">
                    <mxGeometry x="70" y="100" width="100" height="50" as="geometry"/>
                </mxCell>
                <mxCell id="36" value="导出项目数据" style="ellipse;whiteSpace=wrap;html=1;" parent="32" vertex="1">
                    <mxGeometry x="220" y="160" width="106" height="55" as="geometry"/>
                </mxCell>
                <mxCell id="63" value="&amp;lt;&amp;lt;extend&amp;gt;&amp;gt;" style="html=1;verticalAlign=bottom;labelBackgroundColor=none;endArrow=open;endFill=0;dashed=1;strokeWidth=1;endSize=6;" parent="32" source="36" target="33" edge="1">
                    <mxGeometry width="160" relative="1" as="geometry">
                        <mxPoint x="245.13583509747406" y="122.90569415042114" as="sourcePoint"/>
                        <mxPoint x="160.00416490252593" y="137.0943058495791" as="targetPoint"/>
                    </mxGeometry>
                </mxCell>
                <mxCell id="41" style="edgeStyle=none;html=1;exitX=0.5;exitY=0.5;exitDx=0;exitDy=0;exitPerimeter=0;strokeWidth=1;endArrow=classic;endFill=1;endSize=6;" parent="1" source="40" target="23" edge="1">
                    <mxGeometry relative="1" as="geometry"/>
                </mxCell>
                <mxCell id="50" style="edgeStyle=none;html=1;exitX=0.5;exitY=0.5;exitDx=0;exitDy=0;exitPerimeter=0;entryX=0.5;entryY=0;entryDx=0;entryDy=0;entryPerimeter=0;strokeWidth=1;endArrow=block;endFill=0;endSize=15;" parent="1" source="40" target="43" edge="1">
                    <mxGeometry relative="1" as="geometry"/>
                </mxCell>
                <mxCell id="40" value="项目拥有者" style="shape=umlActor;verticalLabelPosition=bottom;verticalAlign=top;html=1;outlineConnect=0;" parent="1" vertex="1">
                    <mxGeometry x="40" y="790" width="30" height="60" as="geometry"/>
                </mxCell>
                <mxCell id="44" style="edgeStyle=none;html=1;exitX=0.5;exitY=0.5;exitDx=0;exitDy=0;exitPerimeter=0;strokeWidth=1;endArrow=classic;endFill=1;endSize=6;" parent="1" source="43" target="26" edge="1">
                    <mxGeometry relative="1" as="geometry"/>
                </mxCell>
                <mxCell id="45" style="edgeStyle=none;html=1;exitX=0.5;exitY=0.5;exitDx=0;exitDy=0;exitPerimeter=0;strokeWidth=1;endArrow=classic;endFill=1;endSize=6;" parent="1" source="43" target="24" edge="1">
                    <mxGeometry relative="1" as="geometry"/>
                </mxCell>
                <mxCell id="47" style="edgeStyle=none;html=1;exitX=0.5;exitY=0.5;exitDx=0;exitDy=0;exitPerimeter=0;strokeWidth=1;endArrow=classic;endFill=1;endSize=6;" parent="1" source="43" target="30" edge="1">
                    <mxGeometry relative="1" as="geometry"/>
                </mxCell>
                <mxCell id="48" style="edgeStyle=none;html=1;exitX=0.5;exitY=0.5;exitDx=0;exitDy=0;exitPerimeter=0;strokeWidth=1;endArrow=classic;endFill=1;endSize=6;" parent="1" source="43" target="29" edge="1">
                    <mxGeometry relative="1" as="geometry"/>
                </mxCell>
                <mxCell id="43" value="项目管理员" style="shape=umlActor;verticalLabelPosition=bottom;verticalAlign=top;html=1;outlineConnect=0;" parent="1" vertex="1">
                    <mxGeometry x="40" y="935" width="30" height="60" as="geometry"/>
                </mxCell>
                <mxCell id="49" style="edgeStyle=none;html=1;exitX=0.5;exitY=0.5;exitDx=0;exitDy=0;exitPerimeter=0;strokeWidth=1;endArrow=classic;endFill=1;endSize=6;" parent="1" source="46" target="25" edge="1">
                    <mxGeometry relative="1" as="geometry"/>
                </mxCell>
                <mxCell id="60" style="edgeStyle=none;html=1;exitX=0.5;exitY=0.5;exitDx=0;exitDy=0;exitPerimeter=0;" parent="1" source="46" target="59" edge="1">
                    <mxGeometry relative="1" as="geometry"/>
                </mxCell>
                <mxCell id="46" value="项目成员" style="shape=umlActor;verticalLabelPosition=bottom;verticalAlign=top;html=1;outlineConnect=0;" parent="1" vertex="1">
                    <mxGeometry x="660" y="920" width="30" height="60" as="geometry"/>
                </mxCell>
                <mxCell id="52" style="edgeStyle=none;html=1;exitX=0.5;exitY=0.5;exitDx=0;exitDy=0;exitPerimeter=0;strokeWidth=1;endArrow=classic;endFill=1;endSize=6;" parent="1" source="51" target="33" edge="1">
                    <mxGeometry relative="1" as="geometry"/>
                </mxCell>
                <mxCell id="51" value="项目管理员" style="shape=umlActor;verticalLabelPosition=bottom;verticalAlign=top;html=1;outlineConnect=0;" parent="1" vertex="1">
                    <mxGeometry x="40" y="1245" width="30" height="60" as="geometry"/>
                </mxCell>
                <mxCell id="54" style="edgeStyle=none;html=1;exitX=0.5;exitY=0.5;exitDx=0;exitDy=0;exitPerimeter=0;strokeWidth=1;endArrow=classic;endFill=1;endSize=6;" parent="1" source="53" target="3" edge="1">
                    <mxGeometry relative="1" as="geometry"/>
                </mxCell>
                <mxCell id="55" style="edgeStyle=none;html=1;exitX=0.5;exitY=0.5;exitDx=0;exitDy=0;exitPerimeter=0;strokeWidth=1;endArrow=classic;endFill=1;endSize=6;" parent="1" source="53" target="4" edge="1">
                    <mxGeometry relative="1" as="geometry"/>
                </mxCell>
                <mxCell id="53" value="用户" style="shape=umlActor;verticalLabelPosition=bottom;verticalAlign=top;html=1;outlineConnect=0;" parent="1" vertex="1">
                    <mxGeometry x="40" y="170" width="30" height="60" as="geometry"/>
                </mxCell>
            </root>
        </mxGraphModel>
    </diagram>
</mxfile>